<svg width="414" height="84" viewBox="0 0 414 84" fill="none" xmlns="http://www.w3.org/2000/svg">
<path d="M47.016 68V34.448L33.912 59.432H28.368L15.264 34.448V68H5.328V16.88H15.984L31.104 45.968L46.368 16.88H56.952V68H47.016ZM63.675 56.84C63.675 54.392 64.347 52.256 65.691 50.432C67.083 48.56 69.003 47.12 71.451 46.112C73.899 45.104 76.707 44.6 79.875 44.6C81.459 44.6 83.067 44.744 84.699 45.032C86.331 45.272 87.747 45.632 88.947 46.112V44.096C88.947 41.696 88.227 39.848 86.787 38.552C85.395 37.256 83.307 36.608 80.523 36.608C78.459 36.608 76.491 36.968 74.619 37.688C72.747 38.408 70.779 39.464 68.715 40.856L65.619 34.52C68.115 32.888 70.659 31.664 73.251 30.848C75.891 30.032 78.651 29.624 81.531 29.624C86.907 29.624 91.083 30.968 94.059 33.656C97.083 36.344 98.595 40.184 98.595 45.176V57.2C98.595 58.256 98.763 59 99.099 59.432C99.435 59.816 100.035 60.056 100.899 60.152V68C100.035 68.192 99.243 68.312 98.523 68.36C97.851 68.456 97.275 68.504 96.795 68.504C94.875 68.504 93.411 68.072 92.403 67.208C91.395 66.344 90.795 65.288 90.603 64.04L90.387 62.096C88.707 64.256 86.643 65.912 84.195 67.064C81.795 68.168 79.323 68.72 76.779 68.72C74.235 68.72 71.979 68.216 70.011 67.208C68.043 66.152 66.483 64.736 65.331 62.96C64.227 61.136 63.675 59.096 63.675 56.84ZM87.147 58.784C88.347 57.632 88.947 56.528 88.947 55.472V51.656C86.451 50.648 83.931 50.144 81.387 50.144C78.843 50.144 76.779 50.696 75.195 51.8C73.611 52.856 72.819 54.272 72.819 56.048C72.819 57.488 73.395 58.784 74.547 59.936C75.699 61.088 77.355 61.664 79.515 61.664C80.955 61.664 82.347 61.4 83.691 60.872C85.083 60.344 86.235 59.648 87.147 58.784ZM130.219 68.72C127.243 68.72 124.651 68.048 122.443 66.704C120.235 65.36 118.507 63.584 117.259 61.376V83.336H107.611V30.272H116.035V36.752C117.427 34.544 119.227 32.816 121.435 31.568C123.691 30.272 126.235 29.624 129.067 29.624C132.475 29.624 135.499 30.512 138.139 32.288C140.779 34.016 142.867 36.368 144.403 39.344C145.939 42.272 146.707 45.512 146.707 49.064C146.707 52.76 145.987 56.096 144.547 59.072C143.155 62 141.211 64.352 138.715 66.128C136.267 67.856 133.435 68.72 130.219 68.72ZM126.979 60.512C128.947 60.512 130.651 59.984 132.091 58.928C133.579 57.824 134.731 56.408 135.547 54.68C136.411 52.904 136.843 51.032 136.843 49.064C136.843 46.952 136.387 45.056 135.475 43.376C134.563 41.648 133.315 40.304 131.731 39.344C130.195 38.336 128.419 37.832 126.403 37.832C124.579 37.832 122.755 38.432 120.931 39.632C119.107 40.832 117.883 42.344 117.259 44.168V53.024C118.123 55.136 119.443 56.912 121.219 58.352C122.995 59.792 124.915 60.512 126.979 60.512Z" fill="white"/>
<path d="M160.444 16.88H178.228C182.596 16.88 186.196 17.768 189.028 19.544C191.908 21.272 194.044 23.648 195.436 26.672C196.828 29.648 197.524 32.984 197.524 36.68C197.524 41.192 196.756 45.368 195.22 49.208C193.732 53 191.62 56.312 188.884 59.144C186.196 61.928 183.004 64.112 179.308 65.696C175.66 67.232 171.676 68 167.356 68H149.572L160.444 16.88ZM169.156 59.288C171.94 59.288 174.436 58.736 176.644 57.632C178.852 56.48 180.748 54.92 182.332 52.952C183.964 50.936 185.188 48.68 186.004 46.184C186.868 43.64 187.3 40.952 187.3 38.12C187.3 34.424 186.364 31.424 184.492 29.12C182.668 26.768 179.956 25.592 176.356 25.592H168.436L161.308 59.288H169.156ZM213.175 68.72C210.391 68.72 207.991 68.048 205.975 66.704C204.007 65.312 202.471 63.464 201.367 61.16C200.311 58.808 199.783 56.168 199.783 53.24C199.783 50.12 200.335 47.144 201.439 44.312C202.543 41.48 204.055 38.96 205.975 36.752C207.943 34.544 210.151 32.816 212.599 31.568C215.095 30.272 217.711 29.624 220.447 29.624C223.039 29.624 225.223 30.32 226.999 31.712C228.823 33.056 230.095 34.784 230.815 36.896L232.255 30.416H241.903L236.287 56.912C236.143 57.488 236.071 57.92 236.071 58.208C236.071 59.216 236.647 59.744 237.799 59.792L236.071 68C235.207 68.144 234.439 68.264 233.767 68.36C233.143 68.456 232.591 68.504 232.111 68.504C230.383 68.504 229.039 68.144 228.079 67.424C227.119 66.704 226.639 65.624 226.639 64.184C226.639 63.56 226.783 62.648 227.071 61.448C225.247 63.8 223.087 65.6 220.591 66.848C218.095 68.096 215.623 68.72 213.175 68.72ZM217.495 60.512C219.175 60.512 220.951 59.912 222.823 58.712C224.695 57.512 226.159 56 227.215 54.176L229.087 45.176C228.799 43.064 227.935 41.312 226.495 39.92C225.103 38.528 223.519 37.832 221.743 37.832C219.679 37.832 217.735 38.504 215.911 39.848C214.135 41.192 212.695 42.944 211.591 45.104C210.487 47.216 209.935 49.424 209.935 51.728C209.935 54.224 210.607 56.312 211.951 57.992C213.295 59.672 215.143 60.512 217.495 60.512ZM257.025 68.72C253.905 68.72 251.001 68.216 248.313 67.208C245.625 66.2 243.465 64.76 241.833 62.888L246.657 56.84C250.257 60.104 254.073 61.736 258.105 61.736C260.121 61.736 261.705 61.304 262.857 60.44C264.009 59.576 264.585 58.448 264.585 57.056C264.585 55.856 264.057 54.968 263.001 54.392C261.993 53.816 260.337 53.192 258.033 52.52C255.537 51.704 253.473 50.936 251.841 50.216C250.257 49.448 249.081 48.56 248.313 47.552C247.545 46.544 247.161 45.224 247.161 43.592C247.161 40.904 247.905 38.504 249.393 36.392C250.929 34.28 252.969 32.624 255.513 31.424C258.105 30.176 260.985 29.552 264.153 29.552C266.889 29.552 269.337 29.984 271.497 30.848C273.657 31.664 275.577 32.96 277.257 34.736L272.145 40.568C270.561 39.128 269.049 38.096 267.609 37.472C266.217 36.8 264.705 36.464 263.073 36.464C261.201 36.464 259.641 36.872 258.393 37.688C257.145 38.504 256.521 39.68 256.521 41.216C256.521 42.32 256.953 43.136 257.817 43.664C258.729 44.192 260.289 44.768 262.497 45.392C266.481 46.544 269.433 47.816 271.353 49.208C273.321 50.6 274.305 52.592 274.305 55.184C274.305 57.776 273.585 60.104 272.145 62.168C270.705 64.184 268.689 65.792 266.097 66.992C263.505 68.144 260.481 68.72 257.025 68.72ZM289.099 15.44H298.747L294.067 37.256C295.939 34.856 298.123 32.984 300.619 31.64C303.163 30.296 305.779 29.624 308.467 29.624C311.827 29.624 314.131 30.488 315.379 32.216C316.675 33.896 317.323 35.984 317.323 38.48C317.323 40.352 317.083 42.344 316.603 44.456L311.635 68H301.987L306.451 46.832C306.739 45.44 306.883 44.264 306.883 43.304C306.883 41.528 306.499 40.232 305.731 39.416C304.963 38.552 303.883 38.12 302.491 38.12C301.435 38.12 300.259 38.456 298.963 39.128C297.667 39.8 296.419 40.736 295.219 41.936C294.019 43.088 293.035 44.432 292.267 45.968L287.587 68H277.939L289.099 15.44Z" fill="#FFBD40"/>
<path d="M373.173 1.6532C363.308 1.6532 355.311 10.2132 355.311 20.7732C355.311 29.3104 366.985 44.8704 371.458 50.5184C372.364 51.6626 373.984 51.6626 374.888 50.5184C379.361 44.8704 391.035 29.3104 391.035 20.7732C391.035 10.2132 383.038 1.6532 373.173 1.6532ZM373.173 27.1465C373.173 27.1465 367.219 24.2937 367.219 20.7732C367.219 17.2527 369.884 14.3999 373.173 14.3999C376.462 14.3999 379.127 17.2527 379.127 20.7732C379.127 24.2937 373.173 27.1465 373.173 27.1465ZM335.198 34.4227C334.356 34.7831 333.635 35.4052 333.126 36.2088C332.618 37.0124 332.346 37.9606 332.346 38.9311V76.9161C332.346 78.6339 333.966 79.8084 335.456 79.1711L355.028 69.6353V34.2664C353.775 31.8415 352.75 29.4804 352.015 27.2224L335.198 34.4227ZM373.173 56.2316C371.178 56.2316 369.292 55.2938 367.997 53.658C365.21 50.1375 362.246 46.1284 359.564 42.0161V69.6338L386.782 79.3456V42.0176C384.1 46.1284 381.137 50.139 378.349 53.6595C377.054 55.2938 375.168 56.2316 373.173 56.2316ZM410.89 26.1086L391.318 35.6443V79.3471L411.148 70.8569C411.99 70.4967 412.711 69.8746 413.22 69.071C413.728 68.2674 414 67.3191 414 66.3485V28.3635C414 26.6457 412.38 25.4712 410.89 26.1086Z" fill="white"/>
<path fill-rule="evenodd" clip-rule="evenodd" d="M355 20.6109C355 9.77977 363.059 1 373 1C382.941 1 391 9.77977 391 20.6109C391 29.3673 379.236 45.3269 374.729 51.1198C373.817 52.2934 372.184 52.2934 371.271 51.1198C366.764 45.3269 355 29.3673 355 20.6109ZM367 20.6109C367 24.2218 373 27.1479 373 27.1479C373 27.1479 379 24.2218 379 20.6109C379 17 376.314 14.0739 373 14.0739C369.686 14.0739 367 17 367 20.6109Z" fill="#FFBD40"/>
<path d="M270.253 5.77489C271.713 5.64104 272.792 4.40397 272.665 3.01176C272.537 1.61956 271.25 0.599497 269.791 0.733348C268.331 0.867198 267.252 2.10427 267.379 3.49647C267.507 4.88867 268.794 5.90874 270.253 5.77489ZM262.604 18.2049L261.955 20.0925L258.272 20.4303C257.299 20.5195 256.579 21.3444 256.665 22.2723C256.75 23.2003 257.608 23.8805 258.58 23.7913L262.845 23.4002C263.905 23.303 264.804 22.6148 265.133 21.6498L265.518 20.5278L264.9 20.2508C263.898 19.801 263.123 19.0703 262.604 18.2049ZM277.036 11.9309L274.612 12.1532L272.921 9.48834C272.109 8.20966 270.756 7.34454 269.274 7.1251L265.259 6.37379C263.668 6.15957 262.075 6.63659 260.89 7.68209L258.853 9.4794C258.132 10.1148 258.082 11.1827 258.743 11.8652C259.403 12.5476 260.521 12.5844 261.241 11.9496L263.28 10.1521C263.674 9.80409 264.201 9.64396 264.642 9.7021L265.472 9.85738L263.83 14.6359C263.278 16.2478 264.067 18.0041 265.665 18.7207L270.586 20.9263L269.496 25.6723C269.286 26.5843 269.89 27.4796 270.843 27.6718C271.024 27.7082 271.203 27.7171 271.378 27.7011C272.127 27.6324 272.78 27.1081 272.95 26.368L274.205 20.901C274.431 19.7804 273.839 18.6532 272.752 18.1539L269.206 16.5652L270.553 12.2961L271.869 14.3695C272.388 15.1873 273.37 15.6559 274.372 15.564L277.344 15.2914C278.317 15.2022 279.037 14.3773 278.952 13.4493C278.867 12.5214 278.009 11.8417 277.036 11.9309Z" fill="white"/>
</svg>
